# xmcd
#
# Track frame offsets:
#	150
#	15052
#	30248
#	43400
#	57203
#	75255
#	91032
#	109836
#	125431
#	143795
#	160034
#	171949
#	185388
#	204633
#	222329
#	240452
#	257175
#	271642
#	287556
#	303363
#	317933
#	331344
#
# Disc length: 4621 seconds
#
# Revision: 1
# Processed by: cddbd v1.5.2PL0 Copyright (c) Steve Scherf et al.
# Submitted via: audiograbber 1.83.01
#
DISCID=22120b16
DTITLE=Various Artist - CDX 607
DYEAR=2014
DGENRE=Country
TTITLE0=Cole Swindell - Ain't Worth The Whiskey
TTITLE1=Toby Keith  - Drunk Americans
TTITLE2=James Otto  - Somewhere Tonight
TTITLE3=Tate Stevens - Better At Night
TTITLE4=Ricky Gunn - King Of This Town
TTITLE5=John Spicer - Pretty Good At Lovin' You
TTITLE6=The Robertsons, Sadie Robertson w. Alison Krauss - Away In A Manger
TTITLE7=Darius Rucker - Candy Cane Christmas
TTITLE8=Toby Keith - Frosty The Snowman
TTITLE9=The Robertsons, Willie Robertson w. Luke Bryan - Hairy Christmas
TTITLE10=Dan and Shay - Have Yourself A Merry Little Christmas
TTITLE11=Jerrod_Neimann - Holly Jolly Christmas
TTITLE12=Alan Jackson - Let It Be Christmas
TTITLE13=Brett Eldredge - Mary Did You Know
TTITLE14=The Swon Brothers - Run Rudolph Run
TTITLE15=Darius Rucker - What God Wants For Christmas
TTITLE16=The Henningsens - White Christmas
TTITLE17=Sherry Lynn - Christmas On My Mind
TTITLE18=Jordan Grassi - God Rest Ye Merry Gentlemen
TTITLE19=Liza G Fly - I Had A Dream It Was Christmas
TTITLE20=Belles and Whistles - Mary Had A Little Boy
TTITLE21=Jody Lynn - This Time Of Year
EXTD=
EXTT0=
EXTT1=
EXTT2=
EXTT3=
EXTT4=
EXTT5=
EXTT6=
EXTT7=
EXTT8=
EXTT9=
EXTT10=
EXTT11=
EXTT12=
EXTT13=
EXTT14=
EXTT15=
EXTT16=
EXTT17=
EXTT18=
EXTT19=
EXTT20=
EXTT21=
PLAYORDER=
